<svg id="Layer_1" data-name="Layer 1" xmlns="http://www.w3.org/2000/svg" viewBox="0 0 1834.48 1834.48"><defs><style>.cls-1{fill:#383838;}.cls-2{fill:#4274ef;}</style></defs><circle class="cls-1" cx="917.24" cy="917.24" r="917.24"/><path class="cls-2" d="M231.78,827.16l140.79-72.53Q683,594.67,993.33,434.48c11.57-6,20.57-6.63,32.67-.56q361.49,181.41,723.42,362c5.44,2.71,10.65,5.88,18.8,10.42-8.55,4.91-14.67,8.72-21,12q-364.49,189.36-728.86,378.92c-13,6.75-22.92,7.49-36.4.77-103.87-51.77-208.2-102.61-312.36-153.78-6-3-11.95-6.25-21-11,57.3-30,111.38-58.39,165.47-86.73,44.94-23.54,89.62-47.62,135-70.2,10.43-5.18,23.51-7.58,35.24-7.19,38.12,1.25,73-22.21,82.18-57.38,7.78-29.78-10.08-56.49-40.6-60.75-37.55-5.24-74.08,18.47-86.34,54.35-2.75,8.06-9.31,17.1-16.62,21Q761.8,911.84,599.7,995.55c-6.79,3.51-18,4.82-24.48,1.68C463.21,943.12,351.61,888.16,240,833.34,238.14,832.45,236.66,830.88,231.78,827.16Z" transform="translate(-82.76 -52.56)"/><path class="cls-2" d="M1407.51,1047.86c20,164.51-20.8,301.11-168.44,391-71.85,43.73-150.44,64.84-234.24,64.8-132.27-.07-246.91-43.12-335.77-144.06-8.6-9.77-13.8-25.49-14.44-38.75-1.89-38.82-.57-77.79-.72-116.69-.12-32-7.49-40.25-40.6-45v-84.71c9.73,4.49,17.16,7.67,24.38,11.28,110.05,55,220.22,109.74,329.92,165.42,15.8,8,27.95,8.66,44.17.19,125.06-65.31,250.7-129.54,376.18-194.06C1394.05,1054.1,1400.33,1051.29,1407.51,1047.86Z" transform="translate(-82.76 -52.56)"/><path class="cls-2" d="M567.06,1229.46c-35.5-4.49-41.87-11.8-41.92-46-.07-39.57-.17-79.14.05-118.72.14-24.69,11.52-38.41,31.1-38.4s31.58,14.05,31.77,38.27c.31,40.91.08,81.83.08,122.5,37.94,9.23,41.92,14.45,41.92,54.18q0,110.4,0,220.78c0,6.25.4,12.58-.43,18.72-2.37,17.57-16.26,29.73-32.47,29.08s-29.44-13.41-29.76-31.42c-.68-38.18-.3-76.37-.32-114.55C567.05,1319.56,567.06,1275.2,567.06,1229.46Z" transform="translate(-82.76 -52.56)"/></svg>