<svg id="Layer_1" data-name="Layer 1" xmlns="http://www.w3.org/2000/svg" viewBox="0 0 1975.68 302.4"><defs><style>.cls-1{fill:#383838;}</style></defs><path class="cls-1" d="M220.47,796.24H66q1.91,22.89,16,35.85t34.7,13q29.75,0,42.32-25.54h57.59q-9.15,30.51-35.09,50.14t-63.68,19.64q-30.51,0-54.72-13.54a95.13,95.13,0,0,1-37.75-38.32q-13.55-24.78-13.54-57.2,0-32.79,13.35-57.58A93,93,0,0,1,62.6,684.51q24-13.34,55.29-13.35,30.12,0,54,13a91.28,91.28,0,0,1,37,36.8Q222,744.77,222,775.65A126.66,126.66,0,0,1,220.47,796.24ZM166.7,760.4q-.37-20.6-14.87-33T116.37,715Q96.53,715,83,727T66.41,760.4Z" transform="translate(-11.88 -586.89)"/><path class="cls-1" d="M349,836.67,402.36,674.6h56.82L381,885.86H316.18L238.39,674.6h57.2Z" transform="translate(-11.88 -586.89)"/><path class="cls-1" d="M684.17,796.24H529.73q1.9,22.89,16,35.85t34.7,13q29.74,0,42.33-25.54h57.58q-9.15,30.51-35.08,50.14t-63.69,19.64q-30.51,0-54.72-13.54a95.13,95.13,0,0,1-37.75-38.32q-13.55-24.78-13.54-57.2,0-32.79,13.35-57.58a93,93,0,0,1,37.37-38.14q24-13.34,55.29-13.35,30.12,0,54,13a91.28,91.28,0,0,1,37,36.8q13.15,23.84,13.16,54.72A126.66,126.66,0,0,1,684.17,796.24ZM630.4,760.4q-.37-20.6-14.87-33T580.07,715q-19.83,0-33.37,12T530.11,760.4Z" transform="translate(-11.88 -586.89)"/><path class="cls-1" d="M902.67,695.38q23.26,23.83,23.27,66.54V885.86H872.55V769.17q0-25.17-12.59-38.71t-34.32-13.53q-22.11,0-34.89,13.53T778,769.17V885.86H724.59V674.6H778v26.31a73.77,73.77,0,0,1,27.26-21.55,84.52,84.52,0,0,1,36.42-7.81Q879.42,671.55,902.67,695.38Z" transform="translate(-11.88 -586.89)"/><path class="cls-1" d="M1038.81,718.45v102.2q0,10.68,5.15,15.44t17.35,4.77h24.79v45h-33.56q-67.5,0-67.5-65.59V718.45H959.87V674.6H985V622.35h53.77V674.6h47.29v43.85Z" transform="translate(-11.88 -586.89)"/><path class="cls-1" d="M1206.4,680.7q18.11-9.53,41.38-9.54,27.08,0,49,13.35t34.7,37.94q12.76,24.6,12.78,57t-12.78,57.4q-12.78,25-34.7,38.7t-49,13.73q-23.65,0-41.38-9.34A80.37,80.37,0,0,1,1178,855.73v30.13h-53.38V603.67H1178V705.49Q1188.29,690.24,1206.4,680.7Zm75.51,65.78a54.25,54.25,0,0,0-20.6-21.17,55.2,55.2,0,0,0-27.64-7.24,53.3,53.3,0,0,0-27.27,7.44,55.13,55.13,0,0,0-20.59,21.54q-7.82,14.12-7.82,33.18t7.82,33.17A55.16,55.16,0,0,0,1206.4,835a53.79,53.79,0,0,0,54.91-.19,56.62,56.62,0,0,0,20.6-21.74q7.8-14.1,7.81-33.56Q1289.72,760.41,1281.91,746.48Z" transform="translate(-11.88 -586.89)"/><path class="cls-1" d="M1463.42,681.08q16.59-9.52,37.94-9.53V727.6h-14.11q-25.15,0-37.94,11.82t-12.77,41.19V885.86h-53.39V674.6h53.39v32.79A75.08,75.08,0,0,1,1463.42,681.08Z" transform="translate(-11.88 -586.89)"/><path class="cls-1" d="M1540.83,640.47a31.32,31.32,0,0,1,0-44.62q9.33-9,23.45-9t23.45,9a31.32,31.32,0,0,1,0,44.62q-9.35,9-23.45,9T1540.83,640.47Zm49.76,34.13V885.86h-53.38V674.6Z" transform="translate(-11.88 -586.89)"/><path class="cls-1" d="M1705.38,718.45v102.2q0,10.68,5.14,15.44c3.44,3.18,9.21,4.77,17.35,4.77h24.79v45H1719.1q-67.49,0-67.49-65.59V718.45h-25.17V674.6h25.17V622.35h53.77V674.6h47.28v43.85Z" transform="translate(-11.88 -586.89)"/><path class="cls-1" d="M1986,796.24H1831.59q1.9,22.89,16,35.85t34.7,13q29.75,0,42.32-25.54h57.59q-9.15,30.51-35.09,50.14t-63.67,19.64q-30.53,0-54.73-13.54A95.19,95.19,0,0,1,1791,837.43q-13.55-24.78-13.54-57.2,0-32.79,13.35-57.58a93,93,0,0,1,37.37-38.14q24-13.34,55.3-13.35,30.11,0,54,13a91.28,91.28,0,0,1,37,36.8q13.15,23.84,13.16,54.72A126.66,126.66,0,0,1,1986,796.24Zm-53.77-35.84q-.37-20.6-14.87-33T1881.93,715q-19.83,0-33.37,12T1832,760.4Z" transform="translate(-11.88 -586.89)"/></svg>