<svg id="Layer_1" data-name="Layer 1" xmlns="http://www.w3.org/2000/svg" viewBox="0 0 1961.01 990.9"><defs><style>.cls-1{fill:#1f1d22;}.cls-2{fill:#112061;}.cls-3{font-size:87.6px;font-family:Poppins-Regular, Poppins;}.cls-3,.cls-4{fill:#f2f2f2;}.cls-4{font-size:96.02px;font-family:Poppins-Bold, Poppins;font-weight:700;}.cls-5{font-family:Poppins-Medium, Poppins;font-weight:500;}.cls-6{fill:#ff9500;stroke:#f2f2f2;stroke-miterlimit:10;stroke-width:3px;}</style></defs><path class="cls-1" d="M50.93,0H1774.7A186.31,186.31,0,0,1,1961,186.31V757.09a233.8,233.8,0,0,1-233.8,233.8H50.93a48.6,48.6,0,0,1-48.6-48.6V48.6A48.6,48.6,0,0,1,50.93,0Z"/><path class="cls-2" d="M32.36,3.88h2.21a0,0,0,0,1,0,0V986.62a0,0,0,0,1,0,0H32.36A32.36,32.36,0,0,1,0,954.27v-918A32.36,32.36,0,0,1,32.36,3.88Z"/><text class="cls-3" transform="translate(76.26 196.57)">Become a sought after last engineer,<tspan x="0" y="153.05">secure a remote or in person job offer and</tspan><tspan x="0" y="306.11">earn high,</tspan></text><text class="cls-4" transform="translate(76.26 696.85)">Abdullahi Suleiman<tspan class="cls-5"><tspan x="0" y="144.03">Lagos, Nigeria</tspan></tspan></text><polygon class="cls-6" points="1726.18 696.32 1741.8 727.96 1776.72 733.03 1751.45 757.66 1757.42 792.44 1726.18 776.02 1694.95 792.44 1700.92 757.66 1675.65 733.03 1710.57 727.96 1726.18 696.32"/><polygon class="cls-6" points="1599.06 696.32 1614.67 727.96 1649.59 733.03 1624.33 757.66 1630.29 792.44 1599.06 776.02 1567.83 792.44 1573.79 757.66 1548.52 733.03 1583.44 727.96 1599.06 696.32"/><polygon class="cls-6" points="1471.93 696.32 1487.55 727.96 1522.47 733.03 1497.2 757.66 1503.16 792.44 1471.93 776.02 1440.7 792.44 1446.66 757.66 1421.4 733.03 1456.32 727.96 1471.93 696.32"/><polygon class="cls-6" points="1344.81 696.32 1360.42 727.96 1395.34 733.03 1370.07 757.66 1376.04 792.44 1344.81 776.02 1313.57 792.44 1319.54 757.66 1294.27 733.03 1329.19 727.96 1344.81 696.32"/><polygon class="cls-6" points="1217.68 696.32 1233.3 727.96 1268.21 733.03 1242.95 757.66 1248.91 792.44 1217.68 776.02 1186.45 792.44 1192.41 757.66 1167.14 733.03 1202.06 727.96 1217.68 696.32"/></svg>