<svg id="Layer_1" data-name="Layer 1" xmlns="http://www.w3.org/2000/svg" viewBox="0 0 1946.74 927.53"><defs><style>.cls-1{fill:#1f1d22;}.cls-2{fill:#112061;}.cls-3{font-size:85.96px;font-family:Poppins-Regular, Poppins;}.cls-3,.cls-4{fill:#f2f2f2;}.cls-4{font-size:89.88px;font-family:Poppins-Bold, Poppins;font-weight:700;}.cls-5{font-family:Poppins-Medium, Poppins;font-weight:500;}.cls-6{fill:#ff9500;stroke:#f2f2f2;stroke-miterlimit:10;stroke-width:3px;}</style></defs><path class="cls-1" d="M16.18,0H1938.46a8.28,8.28,0,0,1,8.28,8.28v911a8.28,8.28,0,0,1-8.28,8.28H16.18a0,0,0,0,1,0,0V0A0,0,0,0,1,16.18,0Z"/><rect class="cls-2" width="32.36" height="927.53"/><text class="cls-3" transform="translate(85.38 184)">Become a sought after last engineer,<tspan x="0" y="143.27">secure a remote or in person job offer and</tspan><tspan x="0" y="286.53">earn high,</tspan></text><text class="cls-4" transform="translate(85.38 652.29)">Abdullahi Suleiman<tspan class="cls-5"><tspan x="0" y="134.82">Lagos, Nigeria</tspan></tspan></text><polygon class="cls-6" points="1629.81 651.79 1644.42 681.41 1677.11 686.16 1653.46 709.22 1659.04 741.77 1629.81 726.4 1600.57 741.77 1606.15 709.22 1582.5 686.16 1615.19 681.41 1629.81 651.79"/><polygon class="cls-6" points="1510.81 651.79 1525.43 681.41 1558.11 686.16 1534.46 709.22 1540.04 741.77 1510.81 726.4 1481.57 741.77 1487.16 709.22 1463.51 686.16 1496.19 681.41 1510.81 651.79"/><polygon class="cls-6" points="1391.81 651.79 1406.43 681.41 1439.12 686.16 1415.46 709.22 1421.05 741.77 1391.81 726.4 1362.58 741.77 1368.16 709.22 1344.51 686.16 1377.19 681.41 1391.81 651.79"/><polygon class="cls-6" points="1272.81 651.79 1287.43 681.41 1320.12 686.16 1296.46 709.22 1302.05 741.77 1272.81 726.4 1243.58 741.77 1249.16 709.22 1225.51 686.16 1258.2 681.41 1272.81 651.79"/><polygon class="cls-6" points="1153.82 651.79 1168.43 681.41 1201.12 686.16 1177.47 709.22 1183.05 741.77 1153.82 726.4 1124.58 741.77 1130.16 709.22 1106.51 686.16 1139.2 681.41 1153.82 651.79"/></svg>