<svg id="Layer_1" data-name="Layer 1" xmlns="http://www.w3.org/2000/svg" viewBox="0 0 1951.18 395.28"><defs><style>.cls-1{fill:#383838;}</style></defs><path class="cls-1" d="M700.82,858.89h-47l-141.42-214v214h-47v-287h47L653.82,785.5V571.93h47Z" transform="translate(-19.1 -571.63)"/><path class="cls-1" d="M969.23,762.82H795.65q2.05,27.21,20.2,43.71T860.38,823q37.92,0,53.6-31.75h50.71a102.33,102.33,0,0,1-37.31,51.33q-27,20-67,20Q827.8,862.6,802,848a104.1,104.1,0,0,1-40.41-41.23Q747,780.14,747,745.09t14.22-61.63a100.07,100.07,0,0,1,40-41Q827,628,860.38,628q32.16,0,57.31,14a99.17,99.17,0,0,1,39.17,39.37q14,25.36,14,58.35A148,148,0,0,1,969.23,762.82Zm-47.42-37.93q-.42-26-18.55-41.64t-44.94-15.67q-24.33,0-41.64,15.46t-20.62,41.85Z" transform="translate(-19.1 -571.63)"/><path class="cls-1" d="M1071.88,670.06V795.81q0,12.78,6,18.34t20.41,5.57h28.86v39.17H1090q-31.76,0-48.65-14.84t-16.91-48.24V670.06h-26.8V631.71h26.8V575.23h47.41v56.48h55.25v38.35Z" transform="translate(-19.1 -571.63)"/><path class="cls-1" d="M1343.18,800.34h-120l-20.62,58.55h-49.06l102.66-287h54.42l102.67,287h-49.48ZM1330,762,1283.4,628.83l-47,133.17Z" transform="translate(-19.1 -571.63)"/><path class="cls-1" d="M1537.36,638.72Q1558,628,1584,628a103.77,103.77,0,0,1,54.21,14.64q24.52,14.64,38.55,41t14,60.61q0,34.23-14,61.23t-38.55,42A101.57,101.57,0,0,1,1584,862.6q-26,0-46.18-10.51t-33-26.18v141h-47V631.71h47v33.4Q1516.75,649.45,1537.36,638.72Zm95.87,64.94q-9.7-17.1-25.57-26a68.75,68.75,0,0,0-34-8.86,66.75,66.75,0,0,0-33.6,9.07q-15.88,9.08-25.57,26.39t-9.69,40.81q0,23.5,9.69,41t25.57,26.59a66.9,66.9,0,0,0,67.61-.2q15.87-9.28,25.57-27t9.68-41.23Q1642.91,720.77,1633.23,703.66Z" transform="translate(-19.1 -571.63)"/><path class="cls-1" d="M1816.9,638.72Q1837.53,628,1863.49,628a103.83,103.83,0,0,1,54.22,14.64q24.52,14.64,38.55,41t14,60.61q0,34.23-14,61.23t-38.55,42a101.63,101.63,0,0,1-54.22,15.05q-26,0-46.17-10.51t-33-26.18v141h-47V631.71h47v33.4Q1796.29,649.45,1816.9,638.72Zm95.86,64.94q-9.69-17.1-25.56-26a68.75,68.75,0,0,0-34-8.86,66.79,66.79,0,0,0-33.61,9.07Q1803.71,687,1794,704.28t-9.69,40.81q0,23.5,9.69,41t25.56,26.59a66.92,66.92,0,0,0,67.62-.2q15.87-9.28,25.56-27t9.69-41.23Q1922.45,720.77,1912.76,703.66Z" transform="translate(-19.1 -571.63)"/><path class="cls-1" d="M227,839.09H19.1V756.52H52.94V659.07H19.1V576.51h170V609.8q50.07-38.16,107.46-38.17,50.35,0,75.8,27.89,25.17,27.87,25.18,89.6v67.4h31.13v82.57H261.38V722.41q0-38.16-6.5-50.35-7-11.91-26.8-11.91-18.14,0-39,13.81v82.56H227Z" transform="translate(-19.1 -571.63)"/></svg>